<svg width="160" height="160" viewBox="0 0 160 160" fill="none" xmlns="http://www.w3.org/2000/svg">
  <rect width="160" height="160" rx="32" fill="#FFF8E7"/>
  <circle cx="80" cy="64" r="29" fill="#C68642"/>
  <path d="M44 139C44 111.938 60.236 96 81 96C101.764 96 116 111.938 116 139V160H44V139Z" fill="#FFB703"/>
  <path d="M49 58C49 38.67 62.4315 23 79 23H83C99.5685 23 112 38.67 112 58C106.5 49.5 98.5 45.25 88 45.25C74.5 45.25 61.5 49.5 49 58Z" fill="#7F5539"/>
  <path d="M67 89C71.3333 92.3333 75.6667 94 80 94C84.3333 94 88.6667 92.3333 93 89" stroke="#7F5539" stroke-width="4" stroke-linecap="round"/>
</svg>
